# xmcd
#
# Track frame offsets: 
#        150
#        4619
#        16917
#        29969
#        42194
#        69364
#        78372
#        79526
#        95860
#        104984
#        113006
#        135791
#        144587
#        145921
#        174117
#        186453
#        187986
#        207059
#        216746
#        222809
#        244308
#        256536
#        257969
#        280320
#        290683
#        296613
#
# Disc length: 4088 seconds
#
# Revision: 0
# Processed by: cddbd v1.5.2PL0 Copyright (c) Steve Scherf et al.
# Submitted via: ExactAudioCopy v1.0b3
#
DISCID=8a0ff61a
DTITLE=Eule - Eule findet den Beat 2 - Auf Europatour (Musik-Hörspiel)
DTITLE=Various Artist - CD 1
DYEAR=2016
DGENRE=Speech
TTITLE0=Eule auf Tour 01
TTITLE1=Eule auf Tour 02
TTITLE2=Eule auf Tour 03
TTITLE3=Eule auf Tour 04
TTITLE4=Eule auf Tour 05
TTITLE5=Eule auf Tour 06
TTITLE6=Eule auf Tour 07
TTITLE7=Eule auf Tour 08
TTITLE8=Eule auf Tour 09
TTITLE9=Eule auf Tour 10
TTITLE10=Eule auf Tour 11
TTITLE11=Eule auf Tour 12
TTITLE12=Eule auf Tour 13
TTITLE13=Eule auf Tour 14
TTITLE14=Eule auf Tour 15
TTITLE15=Eule auf Tour 16
TTITLE16=Eule auf Tour 17
TTITLE17=Eule auf Tour 18
TTITLE18=Eule auf Tour 19
TTITLE19=Eule auf Tour 20
TTITLE20=Eule auf Tour 21
TTITLE21=Eule auf Tour 22
TTITLE22=Eule auf Tour 23
TTITLE23=Eule auf Tour 24
TTITLE24=Eule auf Tour 25
TTITLE25=Eule auf Tour 26
EXTD=
EXTT0=
EXTT1=
EXTT2=
EXTT3=
EXTT4=
EXTT5=
EXTT6=
EXTT7=
EXTT8=
EXTT9=
EXTT10=
EXTT11=
EXTT12=
EXTT13=
EXTT14=
EXTT15=
EXTT16=
EXTT17=
EXTT18=
EXTT19=
EXTT20=
EXTT21=
EXTT22=
EXTT23=
EXTT24=
EXTT25=
PLAYORDER=
